# This file uses centimeters as units for non-parametric coordinates.

mtllib PawnOBJ.mtl
g default
v -0.500000 -1.612092 8.712063
v 0.500000 -1.612092 8.712063
v -0.944445 0.344126 -5.491519
v 0.944445 0.344126 -5.491519
v -0.944445 -1.763531 -5.491519
v 0.944445 -1.763531 -5.491519
v 1.276097 -0.604287 -5.491519
v -1.276097 -0.604287 -5.491519
v -0.944445 0.166358 6.227988
v 0.944445 0.166358 6.227988
v 1.276097 -1.124623 6.097314
v 0.944445 -2.157568 6.525512
v -0.944445 -2.157568 6.525512
v -1.276097 -1.124623 6.097314
v -0.944445 -1.865045 1.508480
v 0.944445 -1.865044 1.508480
v 1.276097 0.088524 1.508480
v 0.944445 1.305111 1.508480
v -0.944445 1.305111 1.508480
v -1.276097 0.088524 1.508480
v -0.643304 -0.916384 7.963413
v 0.643304 -0.916384 7.963413
v 2.993655 -1.865045 0.496628
v 3.000000 0.088524 0.496628
v 4.000000 -1.763531 -6.503372
v 4.000000 -0.604287 -6.503372
v -4.000000 -1.763531 -6.503372
v -2.993655 -1.865045 0.496628
v -3.000000 0.088524 0.496628
v -4.000000 -0.604287 -6.503372
v 4.000000 -1.200559 -6.503372
v -4.000000 -1.200559 -6.503372
v -12.428004 -0.940666 -8.712063
v -9.301271 -1.430524 -1.712063
v 9.301271 -1.430524 -1.712063
v 12.428004 -0.940666 -8.712063
v 6.147463 -1.865044 -0.175815
v 8.214001 -1.551708 -7.175816
v 8.214001 -1.291647 -7.175816
v -8.214001 -1.551708 -7.175816
v -6.147463 -1.865044 -0.175815
v -8.214001 -1.291647 -7.175816
v 1.401718 -0.753580 -5.476577
v 1.104897 -1.614238 -5.476577
v 3.839548 -0.753580 -6.367795
v 3.839548 -1.614238 -6.367795
v -1.483300 -0.784049 -5.397605
v -1.209100 -1.583769 -5.397605
v -3.735345 -1.583769 -6.288823
v -3.735345 -0.784049 -6.288823
v 0.944445 0.824619 -1.991519
v 1.364373 2.157568 -7.373335
v 0.773047 0.703140 -6.678946
v 1.066743 0.703140 -6.678946
v -0.944445 0.824619 -1.991519
v -1.364373 2.157568 -7.373011
v -0.773005 0.703140 -6.678680
v -1.066743 0.703140 -6.678680
v -0.708334 0.344126 -5.491519
v 0.708334 0.344126 -5.491519
vt 0.106111 0.794201
vt 0.040748 0.787585
vt 0.102171 0.555250
vt 0.163767 0.555250
vt 0.051292 0.882067
vt 0.163767 0.555250
vt 0.102171 0.555250
vt 0.040748 0.787585
vt 0.106111 0.794201
vt 0.051292 0.882067
vt 0.051292 0.643116
vt 0.146927 0.643116
vt 0.146927 0.882067
vt 0.051292 0.882067
vt 0.066539 0.555250
vt 0.131680 0.555250
vt 0.962668 0.871625
vt 0.857360 0.840859
vt 0.849997 0.547897
vt 0.953595 0.542868
vt 0.857360 0.840859
vt 0.955254 0.869251
vt 0.946779 0.562950
vt 0.850516 0.567624
vt 0.433753 0.518328
vt 0.568756 0.558678
vt 0.551138 0.573152
vt 0.450977 0.537282
vt 0.565006 0.876972
vt 0.547781 0.858018
vt 0.429546 0.875376
vt 0.447212 0.856833
vt 0.495330 0.876151
vt 0.568756 0.558678
vt 0.433753 0.518328
vt 0.454394 0.549501
vt 0.547465 0.582643
vt 0.429546 0.875376
vt 0.450915 0.844698
vt 0.565006 0.876972
vt 0.544365 0.845799
vt 0.495330 0.876151
vt 0.946590 0.360387
vt 0.922504 0.360387
vt 0.777989 0.360387
vt 0.753903 0.360387
vt 0.720071 0.263638
vt 0.980422 0.263638
vt 0.753903 0.145383
vt 0.946590 0.145383
vt 0.195860 0.235255
vt 0.178171 0.344883
vt 0.171182 0.225025
vt 0.184214 0.172788
vt 0.200835 0.190674
vt 0.184214 0.172788
vt 0.171182 0.225025
vt 0.195860 0.235255
vt 0.178171 0.344883
vt 0.200835 0.190674
vt 0.162762 0.220687
vt 0.207888 0.220687
vt 0.207888 0.340544
vt 0.162762 0.340544
vt 0.162762 0.053456
vt 0.207888 0.053456
vt 0.197270 0.392781
vt 0.173380 0.392781
vt 0.178416 0.375485
vt 0.178416 0.351595
vt 0.196302 0.348171
vt 0.196302 0.378909
vt 0.348445 0.635990
vt 0.344105 0.883782
vt 0.283708 0.846895
vt 0.252650 0.598482
vt 0.344105 0.883782
vt 0.348445 0.635990
vt 0.252650 0.598482
vt 0.283708 0.846895
vt 0.254970 0.733984
vt 0.343607 0.750634
vt 0.345241 0.657380
vt 0.256344 0.655534
vt 0.343607 0.750634
vt 0.254970 0.733984
vt 0.256344 0.655533
vt 0.345241 0.657380
vt 0.274397 0.604700
vt 0.353548 0.606086
vt 0.321657 0.889225
vt 0.297499 0.888802
vt 0.321658 0.889225
vt 0.353548 0.606086
vt 0.274397 0.604700
vt 0.297499 0.888802
vt 0.256812 0.734407
vt 0.342968 0.735916
vt 0.356081 0.698527
vt 0.269708 0.709404
vt 0.342968 0.735916
vt 0.256812 0.734407
vt 0.269708 0.709404
vt 0.356081 0.698527
vt 0.648529 0.157800
vt 0.653988 0.162911
vt 0.723972 0.062459
vt 0.563808 0.244454
vt 0.575624 0.255517
vt 0.653988 0.162911
vt 0.648529 0.157800
vt 0.723972 0.062459
vt 0.575624 0.255517
vt 0.563808 0.244454
vt 0.628898 0.397746
vt 0.572000 0.045112
vt 0.722124 0.045112
vt 0.722124 0.045112
vt 0.572000 0.045112
vt 0.628898 0.397746
vt 0.634592 0.858653
vt 0.759393 0.551691
vt 0.696577 0.858653
vt 0.634583 0.858653
vt 0.696577 0.858653
vt 0.759393 0.551691
vt 0.664893 0.222262
vt 0.592910 0.398579
vt 0.640688 0.398579
vt 0.689099 0.045945
vt 0.627811 0.045945
vt 0.592910 0.398579
vt 0.627811 0.045945
vt 0.689099 0.045945
vt 0.664893 0.222262
vt 0.640688 0.398579
vt 0.596879 0.046641
vt 0.692034 0.046641
vt 0.692034 0.222958
vt 0.596879 0.222958
vt 0.692034 0.399275
vt 0.680140 0.399275
vt 0.608773 0.399275
vt 0.596879 0.399275
vt 0.686140 0.814715
vt 0.746068 0.843326
vt 0.691145 0.621576
vt 0.671347 0.765789
vt 0.686140 0.814717
vt 0.671347 0.765802
vt 0.691145 0.621589
vt 0.746068 0.843326
vt 0.691145 0.621589
vt 0.671347 0.765802
vt 0.686140 0.814717
vt 0.746068 0.843326
vt 0.746068 0.843326
vt 0.686140 0.814715
vt 0.671347 0.765789
vt 0.691145 0.621576
vt 0.690135 0.577532
vt 0.762836 0.577532
vt 0.732563 0.871466
vt 0.674116 0.871466
vt 0.762836 0.577597
vt 0.690125 0.577597
vt 0.674116 0.871466
vt 0.732563 0.871466
vt 0.586009 0.177930
vt 0.716316 0.139461
vt 0.687719 0.198170
vt 0.557412 0.256375
vt 0.598527 0.099485
vt 0.728834 0.080752
vt 0.716316 0.139461
vt 0.586009 0.177930
vt 0.557412 0.256375
vt 0.687719 0.198170
vt 0.728834 0.080752
vt 0.598527 0.099485
vt 0.586009 0.177930
vt 0.716316 0.139461
vt 0.687719 0.198170
vt 0.557412 0.256375
vt 0.598527 0.099485
vt 0.728834 0.080752
vt 0.716316 0.139461
vt 0.586009 0.177930
vt 0.557412 0.256375
vt 0.687719 0.198170
vt 0.728834 0.080752
vt 0.598527 0.099485
vn 0.000000 0.978849 0.204586
vn 0.000000 0.978849 0.204586
vn 0.000000 0.978849 0.204586
vn 0.000000 0.978849 0.204586
vn 0.000000 0.000000 -1.000000
vn 0.000000 0.000000 -1.000000
vn 0.000000 0.000000 -1.000000
vn 0.000000 0.000000 -1.000000
vn 0.000000 0.000000 -1.000000
vn 0.000000 0.000000 -1.000000
vn 0.000000 -0.999101 -0.042405
vn 0.000000 -0.999101 -0.042405
vn 0.000000 -0.999101 -0.042405
vn 0.000000 -0.999101 -0.042405
vn 0.965426 0.254705 0.055479
vn 0.965426 0.254705 0.055479
vn 0.965426 0.254705 0.055479
vn 0.965426 0.254705 0.055479
vn -0.965426 0.254705 0.055479
vn -0.965426 0.254705 0.055479
vn -0.965426 0.254705 0.055479
vn -0.965426 0.254705 0.055479
vn 0.971171 -0.236412 -0.030618
vn 0.971170 -0.236412 -0.030618
vn 0.971171 -0.236412 -0.030618
vn -0.000000 0.000000 -1.000000
vn -0.000000 0.000000 -1.000000
vn -0.000000 0.000000 -1.000000
vn -0.000000 0.000000 -1.000000
vn -0.971170 -0.236412 -0.030618
vn -0.971170 -0.236412 -0.030618
vn -0.971170 -0.236412 -0.030618
vn 0.000000 0.867587 0.497286
vn 0.000000 0.867587 0.497286
vn 0.000000 0.867587 0.497286
vn 0.000000 0.867587 0.497286
vn 0.926865 0.236900 0.291204
vn 0.926865 0.236900 0.291204
vn 0.926865 0.236900 0.291204
vn 0.948300 -0.177964 0.262785
vn 0.948300 -0.177964 0.262785
vn 0.948300 -0.177964 0.262785
vn 0.000000 -0.940955 0.338531
vn 0.000000 -0.940955 0.338531
vn 0.000000 -0.940955 0.338531
vn 0.000000 -0.940955 0.338531
vn -0.948300 -0.177964 0.262785
vn -0.948300 -0.177964 0.262785
vn -0.948300 -0.177964 0.262785
vn -0.926865 0.236900 0.291204
vn -0.926865 0.236900 0.291204
vn -0.926865 0.236900 0.291204
vn 0.000000 -0.999981 0.006164
vn 0.000000 -0.999981 0.006164
vn 0.000000 -0.999981 0.006164
vn 0.000000 -0.999981 0.006164
vn 0.989879 -0.002611 0.141892
vn 0.989879 -0.002611 0.141892
vn 0.989879 -0.002611 0.141892
vn 0.989879 -0.002611 0.141892
vn 0.955560 0.292761 -0.034583
vn 0.955560 0.292761 -0.034583
vn 0.955560 0.292761 -0.034583
vn 0.000000 0.990708 -0.136008
vn 0.000000 0.990708 -0.136008
vn 0.000000 0.990708 -0.136008
vn 0.000000 0.990708 -0.136008
vn -0.955560 0.292761 -0.034583
vn -0.955560 0.292761 -0.034583
vn -0.955560 0.292761 -0.034583
vn -0.955560 0.292761 -0.034583
vn -0.000000 0.867587 0.497286
vn -0.000000 0.867587 0.497286
vn -0.000000 0.867587 0.497286
vn -0.000000 0.867587 0.497286
vn 0.926865 0.236900 0.291204
vn 0.926865 0.236900 0.291204
vn 0.926865 0.236900 0.291204
vn -0.926865 0.236900 0.291205
vn -0.926865 0.236900 0.291205
vn -0.926865 0.236900 0.291205
vn 0.472196 -0.044115 0.880389
vn 0.472196 -0.044115 0.880389
vn 0.472196 -0.044115 0.880389
vn 0.472196 -0.044115 0.880389
vn 0.002515 -0.999977 0.006345
vn 0.002515 -0.999977 0.006345
vn 0.002515 -0.999977 0.006345
vn 0.002515 -0.999977 0.006345
vn -0.325285 0.056092 -0.943951
vn -0.325285 0.056092 -0.943951
vn -0.325285 0.056092 -0.943951
vn -0.325285 0.056092 -0.943951
vn -0.046253 0.993744 -0.101657
vn -0.046253 0.993744 -0.101657
vn -0.046253 0.993744 -0.101658
vn -0.046253 0.993744 -0.101657
vn -0.002515 -0.999977 0.006345
vn -0.002515 -0.999977 0.006345
vn -0.002515 -0.999977 0.006345
vn -0.002515 -0.999977 0.006345
vn -0.472196 -0.044115 0.880389
vn -0.472196 -0.044115 0.880389
vn -0.472196 -0.044115 0.880389
vn -0.472196 -0.044115 0.880389
vn 0.046253 0.993744 -0.101658
vn 0.046253 0.993744 -0.101658
vn 0.046253 0.993744 -0.101658
vn 0.046253 0.993744 -0.101657
vn 0.348877 0.059810 -0.935258
vn 0.348877 0.059810 -0.935258
vn 0.348877 0.059810 -0.935258
vn 0.348877 0.059810 -0.935258
vn -0.989879 -0.002611 0.141892
vn -0.989879 -0.002611 0.141892
vn -0.989879 -0.002611 0.141892
vn -0.989879 -0.002611 0.141892
vn -0.138234 -0.990384 -0.005542
vn -0.138234 -0.990384 -0.005542
vn -0.138234 -0.990384 -0.005542
vn -0.138234 -0.990384 -0.005542
vn 0.088228 0.995178 0.042852
vn 0.088228 0.995178 0.042852
vn 0.088228 0.995178 0.042852
vn 0.088228 0.995178 0.042852
vn 0.342508 0.000000 -0.939515
vn 0.342508 0.000000 -0.939515
vn 0.342508 0.000000 -0.939515
vn -0.088228 0.995178 0.042852
vn -0.088228 0.995178 0.042852
vn -0.088228 0.995178 0.042852
vn -0.088228 0.995178 0.042852
vn 0.138234 -0.990384 -0.005542
vn 0.138234 -0.990384 -0.005542
vn 0.138234 -0.990384 -0.005542
vn 0.138234 -0.990384 -0.005542
vn -0.342507 0.000000 -0.939515
vn -0.342507 0.000000 -0.939515
vn -0.342507 0.000000 -0.939515
vn 0.005825 -0.999821 -0.018017
vn 0.005825 -0.999821 -0.018017
vn 0.005825 -0.999821 -0.018017
vn 0.005825 -0.999821 -0.018017
vn -0.157580 0.000000 -0.987506
vn -0.157580 0.000000 -0.987506
vn -0.157580 0.000000 -0.987506
vn -0.157580 0.000000 -0.987506
vn 0.047938 0.994947 0.088215
vn 0.047938 0.994947 0.088215
vn 0.047938 0.994947 0.088215
vn 0.047938 0.994947 0.088215
vn -0.005825 -0.999821 -0.018017
vn -0.005825 -0.999821 -0.018017
vn -0.005825 -0.999821 -0.018017
vn -0.005825 -0.999821 -0.018017
vn -0.047938 0.994947 0.088215
vn -0.047938 0.994947 0.088215
vn -0.047938 0.994947 0.088215
vn -0.047938 0.994947 0.088215
vn 0.157580 0.000000 -0.987506
vn 0.157580 0.000000 -0.987506
vn 0.157580 0.000000 -0.987506
vn 0.157580 0.000000 -0.987506
vn 0.103844 -0.032309 -0.994069
vn 0.103844 -0.032309 -0.994069
vn 0.103844 -0.032309 -0.994069
vn 0.103844 -0.032309 -0.994069
vn -0.317488 -0.397063 -0.861129
vn -0.317488 -0.397062 -0.861129
vn -0.317488 -0.397062 -0.861129
vn -0.317488 -0.397063 -0.861129
vn -0.645417 0.000000 -0.763831
vn -0.645417 0.000000 -0.763831
vn -0.645416 0.000000 -0.763831
vn -0.645416 0.000000 -0.763831
vn -0.645415 0.000000 -0.763832
vn -0.645415 0.000000 -0.763832
vn -0.645415 0.000000 -0.763832
vn -0.281611 0.431925 -0.856817
vn -0.281611 0.431925 -0.856817
vn -0.281611 0.431925 -0.856817
vn -0.281611 0.431925 -0.856817
vn -0.367439 -0.113639 -0.923079
vn -0.367439 -0.113639 -0.923079
vn -0.367439 -0.113639 -0.923079
vn -0.367439 -0.113639 -0.923079
vn 0.250506 0.630393 -0.734746
vn 0.250506 0.630393 -0.734746
vn 0.250506 0.630393 -0.734746
vn 0.250506 0.630393 -0.734746
vn 0.629737 0.000000 -0.776809
vn 0.629737 0.000000 -0.776809
vn 0.629737 0.000000 -0.776809
vn 0.629738 0.000000 -0.776807
vn 0.629738 0.000000 -0.776807
vn 0.629739 0.000000 -0.776807
vn 0.629738 0.000000 -0.776807
vn 0.286561 -0.597061 -0.749267
vn 0.286561 -0.597061 -0.749267
vn 0.286561 -0.597061 -0.749267
vn 0.286561 -0.597061 -0.749267
vn 0.980283 -0.195208 0.030635
vn 0.980283 -0.195208 0.030635
vn 0.980283 -0.195208 0.030635
vn 0.980283 -0.195208 0.030635
vn 0.000000 -0.430846 -0.902425
vn 0.000000 -0.430846 -0.902425
vn 0.000000 -0.430846 -0.902425
vn -0.980283 -0.195212 0.030637
vn -0.980282 -0.195212 0.030637
vn -0.980282 -0.195212 0.030637
vn -0.980282 -0.195212 0.030637
vn 0.931608 0.362626 0.024677
vn 0.931608 0.362626 0.024677
vn 0.931608 0.362626 0.024677
vn 0.931608 0.362626 0.024677
vn 0.000000 -0.430816 -0.902440
vn 0.000000 -0.430816 -0.902440
vn 0.000000 -0.430816 -0.902440
vn 0.000000 0.990708 -0.136008
vn 0.000000 0.990708 -0.136008
vn 0.000000 0.990708 -0.136008
vn 0.000000 0.990708 -0.136008
vn 0.000000 0.990708 -0.136008
vn 0.000000 0.990708 -0.136008
vn -0.931610 0.362621 0.024667
vn -0.931610 0.362621 0.024667
vn -0.931610 0.362621 0.024667
vn -0.931610 0.362621 0.024667
vn 0.000000 -0.957206 -0.289408
vn 0.000000 -0.957206 -0.289408
vn 0.000000 -0.957206 -0.289408
vn 0.000000 -0.957206 -0.289408
vn 0.000001 -0.957188 -0.289467
vn 0.000001 -0.957188 -0.289467
vn 0.000001 -0.957188 -0.289467
vn 0.000001 -0.957188 -0.289467
vn 0.955560 0.292761 -0.034583
vn 0.955560 0.292761 -0.034583
vn 0.955560 0.292761 -0.034583
vn 0.955560 0.292761 -0.034583
vn -0.955560 0.292761 -0.034583
vn -0.955560 0.292761 -0.034583
vn -0.955560 0.292761 -0.034583
vn 0.971171 -0.236412 -0.030618
vn 0.971171 -0.236412 -0.030618
vn 0.971170 -0.236412 -0.030618
vn -0.971170 -0.236412 -0.030618
vn -0.971170 -0.236412 -0.030618
vn -0.971170 -0.236412 -0.030618
s off
g Pawn
usemtl lambert2SG
f 9/11/1 10/12/2 18/13/3 19/14/4
f 3/43/5 59/44/6 60/45/7 4/46/8 7/47/9 8/48/10
f 15/61/11 16/62/12 12/63/13 13/64/14
f 10/1/15 11/2/16 17/3/17 18/4/18
f 19/6/19 20/7/20 14/8/21 9/9/22
f 11/115/23 16/116/24 17/117/25
f 8/48/26 7/47/27 6/49/28 5/50/29
f 14/51/30 15/52/31 13/53/32
f 21/15/33 22/16/34 10/12/35 9/11/36
f 22/5/37 11/2/38 10/1/39
f 2/56/40 12/57/41 11/58/42
f 13/64/43 12/63/44 2/67/45 1/68/46
f 14/51/47 13/53/48 1/54/49
f 9/9/50 14/8/51 21/10/52
f 5/65/53 6/66/54 16/62/55 15/61/56
f 24/89/57 23/90/58 31/91/59 26/92/60
f 51/127/61 7/128/62 4/129/63
f 19/137/64 18/138/65 51/139/66 55/140/67
f 8/132/68 20/133/69 19/134/70 55/135/71
f 1/69/72 2/70/73 22/71/74 21/72/75
f 2/56/76 11/58/77 22/60/78
f 21/55/79 14/51/80 1/54/81
f 17/81/82 16/82/83 23/83/84 24/84/85
f 16/97/86 6/98/87 25/99/88 23/100/89
f 44/17/90 43/18/91 45/19/92 46/20/93
f 7/73/94 17/74/95 24/75/96 26/76/97
f 5/101/98 15/102/99 28/103/100 27/104/101
f 15/85/102 20/86/103 29/87/104 28/88/105
f 20/77/106 8/78/107 30/79/108 29/80/109
f 47/21/110 48/22/111 49/23/112 50/24/113
f 32/93/114 28/94/115 29/95/116 30/96/117
f 40/169/118 41/170/119 34/171/120 33/172/121
f 41/175/122 42/176/123 33/177/124 34/178/125
f 42/105/126 40/106/127 33/107/128
f 39/181/129 37/182/130 35/183/131 36/184/132
f 37/187/133 38/188/134 36/189/135 35/190/136
f 38/110/137 39/111/138 36/112/139
f 23/191/140 25/192/141 38/188/142 37/187/143
f 25/113/144 31/114/145 39/111/146 38/110/147
f 31/185/148 23/186/149 37/182/150 39/181/151
f 27/173/152 28/174/153 41/170/154 40/169/155
f 28/179/156 32/180/157 42/176/158 41/175/159
f 32/108/160 27/109/161 40/106/162 42/105/163
f 6/25/164 7/26/165 43/27/166 44/28/167
f 7/26/168 26/29/169 45/30/170 43/27/171
f 26/29/172 31/33/173 46/32/174 45/30/175
f 31/33/176 25/31/177 46/32/178
f 25/31/179 6/25/180 44/28/181 46/32/182
f 8/34/183 5/35/184 48/36/185 47/37/186
f 5/35/187 27/38/188 49/39/189 48/36/190
f 27/38/191 32/42/192 49/39/193
f 32/42/194 30/40/195 50/41/196 49/39/197
f 30/40/198 8/34/199 47/37/200 50/41/201
f 54/145/202 52/146/203 51/147/204 4/148/205
f 53/121/206 52/122/207 54/123/208
f 58/149/209 3/150/210 55/151/211 56/152/212
f 55/153/213 59/154/214 57/155/215 56/156/216
f 57/124/217 58/125/218 56/126/219
f 55/140/220 51/139/221 4/141/222 60/142/223 59/143/224 3/144/225
f 52/157/226 53/158/227 60/159/228 51/160/229
f 53/161/230 54/162/231 4/163/232 60/164/233
f 58/165/234 57/166/235 59/167/236 3/168/237
f 18/130/238 17/131/239 7/128/240 51/127/241
f 8/132/242 55/135/243 3/136/244
f 11/58/245 12/57/246 16/59/247
f 20/118/248 15/119/249 14/120/250
